<svg id="SvgjsSvg1017" xmlns="http://www.w3.org/2000/svg" version="1.1" xmlns:xlink="http://www.w3.org/1999/xlink" xmlns:svgjs="http://svgjs.com/svgjs" width="385" height="55" viewBox="0 0 385 55"><title>logo</title><desc>Created with Avocode.</desc><defs id="SvgjsDefs1018"></defs><path id="SvgjsPath1019" d="M526.831 456.336C528.367 460.038 525.697 461.6 525.136 461.93600000000004L533.17 461.90600000000006L532.125 463.2300000000001L519.691 463.2300000000001C522.0980000000001 463.2240000000001 525.537 461.2220000000001 523.0160000000001 455.13700000000006L510.47800000000007 425.3190000000001C507.99800000000005 431.3670000000001 505.53900000000004 437.5350000000001 502.91100000000006 443.28400000000005L504.63500000000005 441.7710000000001C510.02900000000005 442.58700000000005 513.692 442.24300000000005 515.6310000000001 440.7390000000001C513.2130000000001 443.5410000000001 508.88900000000007 444.5710000000001 502.6600000000001 443.8390000000001C495.19000000000005 460.03300000000013 486.2990000000001 472.6990000000001 471.4820000000001 469.3820000000001C482.5590000000001 470.22500000000014 492.45400000000006 467.6060000000001 508.8260000000001 421.3840000000001L510.4770000000001 416.3390000000001ZM591.199 440.402C599.389 456.664 613.139 468.899 623.8889999999999 468.644C610.5679999999999 470.591 597.2199999999999 459.75600000000003 588.1279999999999 441.372C586.0509999999999 441.88 583.8749999999999 442.12600000000003 581.6039999999999 442.113L585.001 439.436C585.001 439.436 597.385 441.77099999999996 598.302 430.258C598.7330000000001 424.878 593.999 420.188 588.691 420.188C585.71 420.188 583.0500000000001 421.562 581.2800000000001 423.71999999999997C583.0050000000001 420.08 586.6800000000001 417.566 590.9340000000001 417.566C596.8320000000001 417.566 601.7850000000001 422.36999999999995 601.4900000000001 428.335C601.0590000000001 437.11499999999995 592.8100000000002 439.77299999999997 591.1990000000001 440.402ZM673.56 419.863C676.0329999999999 419.487 677.6469999999999 416.543 677.6469999999999 416.543C675.4449999999999 420.823 674.131 425.6 673.7069999999999 430.877C673.8129999999999 422.735 666.4989999999999 421.422 665.7939999999999 421.144C661.4979999999998 419.82800000000003 656.4299999999998 419.759 652.4469999999999 421.002C642.1929999999999 424.213 637.7549999999999 435.94 642.5249999999999 447.20300000000003C646.8809999999999 457.47400000000005 657.4369999999999 464.11600000000004 666.9859999999999 462.42300000000006C671.2299999999999 461.66900000000004 675.7419999999998 457.6790000000001 677.4499999999999 451.28900000000004L674.765 463.97100000000006C674.6 462.16600000000005 674.026 461.38400000000007 671.685 462.23900000000003C671.246 462.43800000000005 670.8 462.627 670.351 462.80300000000005C670.02 462.94500000000005 669.725 463.0520000000001 669.443 463.13900000000007C668.824 463.35800000000006 668.189 463.55500000000006 667.547 463.72900000000004L667.4150000000001 463.78100000000006C665.441 464.28800000000007 663.4140000000001 464.5880000000001 661.3950000000001 464.6260000000001C648.0010000000001 464.84800000000007 637.113 454.8930000000001 636.8770000000001 441.8220000000001C636.6370000000001 428.7480000000001 647.2990000000001 417.5890000000001 660.6920000000001 417.7410000000001C667.5180000000001 417.8170000000001 671.5180000000001 420.1760000000001 673.5600000000002 419.8630000000001ZM480.523 437.785C483.882 437.71700000000004 484.574 435.372 485.605 432.27500000000003C484.613 436.586 484.606 440.42100000000005 485.605 444.74600000000004C484.567 441.629 483.488 439.497 480.418 439.17600000000004C477.747 438.898 474.942 439.26400000000007 471.646 439.7830000000001L471.63100000000003 456.32200000000006C471.63100000000003 460.0160000000001 468.853 461.58700000000005 468.16600000000005 461.92100000000005L475.45400000000006 461.89000000000004L474.10600000000005 463.21200000000005L461.63200000000006 463.21200000000005C464.0400000000001 463.20400000000006 468.31000000000006 461.20700000000005 468.31000000000006 455.12200000000007L468.31000000000006 421.24800000000005L471.47200000000004 419.119L465.39000000000004 419.119L463.011 419.12600000000003L464.35900000000004 417.802L491.99 417.802C494.522 417.802 495.096 417.09700000000004 496.095 416.084C496.095 416.084 494.74 417.924 494.91 419.984C495.077 422.048 495.504 424.178 495.33200000000005 425.80899999999997C495.33200000000005 425.80899999999997 494.89400000000006 419.126 486.3070000000001 419.126L472.11100000000005 419.11899999999997C471.7180000000001 419.912 471.66300000000007 420.905 471.66300000000007 421.633L471.6500000000001 438.04499999999996L472.1130000000001 437.59999999999997C472.1130000000001 437.59999999999997 477.3250000000001 437.849 480.52300000000014 437.78499999999997ZM691.835 419.09L683.3720000000001 419.126L684.7170000000001 417.80199999999996L694.652 417.80199999999996C692.244 417.80999999999995 692.018 420.22299999999996 692.018 421.633L692.0060000000001 440.375L694.1550000000001 437.785C706.34 438.093 714.0470000000001 437.922 717.4030000000001 435.24300000000005C717.4030000000001 435.24300000000005 714.9300000000002 439.43600000000004 706.0990000000002 439.708C697.8620000000002 439.966 693.2580000000002 440.569 692.0060000000002 440.75100000000003L691.9920000000002 456.32200000000006C691.9920000000002 460.0160000000001 689.2160000000002 461.58700000000005 688.5220000000002 461.92100000000005L695.8140000000002 461.89000000000004L694.4660000000002 463.21200000000005L681.9910000000002 463.21200000000005C684.4010000000002 463.20400000000006 688.6710000000002 461.20700000000005 688.6710000000002 455.12200000000007L688.6710000000002 421.24800000000005L691.8240000000002 419.119ZM755.03 419.126L743.9259999999999 419.126L743.9259999999999 437.525L745.6879999999999 435.739C745.6879999999999 435.739 750.6969999999999 435.993 753.7699999999999 435.928C756.9929999999998 435.859 757.6569999999998 433.515 758.6499999999999 430.421C757.6899999999998 434.726 757.6899999999998 438.563 758.6499999999999 442.89C757.6549999999999 439.77299999999997 756.6169999999998 437.642 753.6669999999999 437.31899999999996C750.757 437.008 747.6779999999999 437.515 743.9259999999999 438.14699999999993L743.9259999999999 456.27399999999994C743.9259999999999 459.88499999999993 741.28 461.46299999999997 740.506 461.84899999999993L757.231 461.84899999999993C763.933 461.84899999999993 765.023 453.9339999999999 765.023 453.9339999999999C765.192 455.56999999999994 764.308 458.98599999999993 764.679 461.2219999999999C765.023 463.2589999999999 766.006 464.48299999999995 766.006 464.48299999999995C765.096 463.7049999999999 763.884 463.22399999999993 761.731 463.22399999999993L734.025 463.22399999999993L735.459 461.84899999999993L738.635 461.84899999999993C739.372 461.47799999999995 740.599 460.27899999999994 740.599 456.41099999999994L740.599 421.1979999999999L743.6880000000001 419.1259999999999L734.1240000000001 419.1259999999999L735.4670000000001 417.8019999999999L760.7110000000001 417.8019999999999C763.2340000000002 417.8019999999999 763.8140000000001 417.0929999999999 764.8140000000001 416.0839999999999C764.8140000000001 416.0839999999999 763.4580000000001 417.92399999999986 763.6310000000001 419.98399999999987C763.7980000000001 422.04499999999985 764.2220000000001 424.1779999999999 764.0520000000001 425.80899999999986C764.0520000000001 425.80899999999986 763.6110000000001 419.12599999999986 755.0300000000001 419.12599999999986ZM545.775 442.034C546.4499999999999 441.116 548.009 438.264 548.009 438.264C548.009 438.264 552.8240000000001 439.499 556.715 436.349C558.524 434.892 558.918 432.454 558.918 429.96C558.918 424.56199999999995 554.61 420.186 549.299 420.186C548.309 420.186 547.3589999999999 420.334 546.462 420.616C546.984 419.765 548.261 417.597 551.54 417.561C558.0559999999999 417.493 562.062 422.292 562.062 428.262C562.062 433.354 558.253 437.755 553.516 438.934C561.783 439.297 566.033 444.706 566.033 451.083C566.033 457.274 559.79 463.21200000000005 554.665 463.21200000000005L534.896 463.21200000000005C537.3109999999999 463.20400000000006 541.5799999999999 461.20700000000005 541.5799999999999 455.12200000000007L541.5799999999999 421.24800000000005L544.7309999999999 419.119L536.2759999999998 419.12600000000003L537.6229999999998 417.802L547.5579999999998 417.802C545.1459999999997 417.81 544.9279999999998 420.223 544.9279999999998 421.63300000000004L544.8989999999998 456.32200000000006C544.8989999999998 460.0160000000001 542.1229999999998 461.58700000000005 541.4229999999998 461.92100000000005L555.7839999999998 461.89000000000004C567.2159999999998 461.18700000000007 567.1159999999998 437.302 545.7749999999997 442.03400000000005ZM411.321 426.891C402.992 425.649 393.45700000000005 423.689 386.30600000000004 421.019C388.96900000000005 433.235 390.095 444.978 389.833 457.883L386.598 460.24899999999997C387.78200000000004 451.856 385.891 429.854 382.031 415.99899999999997C391.466 420.24199999999996 404.03000000000003 422.969 407.831 422.84999999999997ZM416.376 422.85C420.17999999999995 422.96900000000005 432.74399999999997 420.242 442.17199999999997 415.999C438.318 429.85400000000004 436.424 451.856 437.60499999999996 460.249L434.37299999999993 457.88300000000004C434.1069999999999 444.97800000000007 435.23599999999993 433.235 437.90099999999995 421.01900000000006C430.74699999999996 423.6890000000001 421.21599999999995 425.64900000000006 412.88499999999993 426.8910000000001ZM410.356 431.601C410.356 431.601 411.13599999999997 436.197 410.784 440.976C410.147 449.54 408.135 458.53 408.468 461.351C408.80100000000004 464.169 410.632 466.897 411.44 467.902C408.511 465.31899999999996 394.203 465.174 389.01 459.675C392.881 461.492 404.59499999999997 462.498 408.46799999999996 464.314C406.43499999999995 462.115 406.24799999999993 454.558 407.57099999999997 443.511C408.86199999999997 432.69800000000004 406.909 426.58000000000004 406.909 426.58000000000004ZM417.293 426.58C417.293 426.58 415.344 432.698 416.637 443.51099999999997C417.959 454.558 417.771 462.11499999999995 415.738 464.31399999999996C419.611 462.498 431.325 461.49199999999996 435.193 459.67499999999995C430.002 465.174 415.69399999999996 465.31899999999996 412.765 467.90199999999993C413.568 466.89699999999993 415.407 464.1689999999999 415.738 461.35099999999994C416.067 458.5299999999999 414.061 449.53999999999996 413.423 440.97599999999994C413.07 436.19699999999995 413.851 431.60099999999994 413.851 431.60099999999994ZM580.645 419.09L572.18 419.126L573.521 417.80199999999996L583.4599999999999 417.80199999999996C581.0469999999999 417.80999999999995 580.8269999999999 420.22299999999996 580.8269999999999 421.633L580.7949999999998 456.322C580.7949999999998 460.016 578.0219999999998 461.587 577.3259999999998 461.921L584.6229999999998 461.89L583.2739999999998 463.212L570.7989999999998 463.212C573.2049999999997 463.204 577.4769999999997 461.207 577.4769999999997 455.122L577.4769999999997 421.248L580.6399999999998 419.11899999999997ZM625.38 419.09L616.917 419.126L618.263 417.80199999999996L628.198 417.80199999999996C625.785 417.80999999999995 625.562 420.22299999999996 625.562 421.633L625.533 456.322C625.533 460.016 622.759 461.587 622.067 461.921L629.3580000000001 461.89L628.013 463.212L615.5400000000001 463.212C617.946 463.204 622.2160000000001 461.207 622.2160000000001 455.122L622.2160000000001 421.248L625.3760000000001 419.11899999999997ZM718.26 461.933L726.712 461.899L725.372 463.218L719.958 463.221L715.442 463.218C717.852 463.208 718.074 460.797 718.074 459.39000000000004L718.098 424.701C718.098 421.00100000000003 720.881 419.435 721.573 419.1L714.2819999999999 419.132L715.6239999999999 417.805L728.098 417.805C725.6909999999999 417.813 721.418 419.818 721.418 425.897L721.418 459.772ZM419.948 448.362C419.83099999999996 440.976 429.655 440.903 431.88399999999996 437.454C431.94899999999996 438.26 430.72999999999996 441.786 427.27799999999996 443.644C423.59399999999994 445.629 421.29499999999996 445.437 419.948 448.362ZM679.673 447.998C679.598 448.255 679.516 448.515 679.428 448.768L679.529 447.96599999999995C679.574 447.9789999999999 679.623 447.99099999999993 679.673 447.99799999999993ZM396.929 443.644C393.47799999999995 441.786 392.25899999999996 438.26 392.318 437.454C394.555 440.903 404.377 440.976 404.26 448.362C402.906 445.437 400.611 445.629 396.929 443.644Z " fill="#d22712" fill-opacity="1" transform="matrix(1,0,0,1,-382,-415)"></path></svg>